<svg id="Replace_File" data-name="Replace File" xmlns="http://www.w3.org/2000/svg" width="24.759" height="23.536" viewBox="0 0 24.759 23.536">
  <g id="description_black_48dp" data-name="description black 48dp" transform="translate(3.184 2.276)">
    <path id="Path_198" data-name="Path 198" d="M5.46,3.31H21.209V19.059H5.46Z" transform="translate(-5.46 -3.31)" fill="none"/>
    <path id="Path_199" data-name="Path 199" d="M15.406,5.31H10.681A1.228,1.228,0,0,0,9.5,6.57V16.649a1.213,1.213,0,0,0,1.181,1.26h7.087a1.228,1.228,0,0,0,1.181-1.26V9.09Zm2.362,11.339H10.681V6.57h4.134V9.72h2.953Z" transform="translate(-6.319 -3.735)" fill="#1648c6"/>
  </g>
  <g id="description_black_48dp-2" data-name="description black 48dp-2" transform="translate(8.515 7.788)">
    <path id="Path_198-2" data-name="Path 198-2" d="M12.23,10.31H27.979V26.059H12.23Z" transform="translate(-12.23 -10.31)" fill="none"/>
    <path id="Path_199-2" data-name="Path 199-2" d="M22.136,12.31H17.411a1.236,1.236,0,0,0-1.181,1.26V23.649a1.221,1.221,0,0,0,1.181,1.26H24.5a1.221,1.221,0,0,0,1.181-1.26V16.09ZM24.5,23.649H17.411V13.57l4.725-.118V16.6H24.5Z" transform="translate(-13.08 -10.735)" fill="#1648c6"/>
  </g>
  <path id="Path" d="M21.16,3.436l3.024,3.284.094-2.362a4.725,4.725,0,0,1,4.528,4.921,4.622,4.622,0,0,1-.685,2.173l1.134,1.236a6.205,6.205,0,0,0,1.11-3.307,6.3,6.3,0,0,0-6.024-6.6L24.436.42Z" transform="translate(-5.613 -0.42)" fill="#1648c6"/>
  <path id="Path-2" d="M6.648,22.831a4.725,4.725,0,0,1-3.536-5.67,4.551,4.551,0,0,1,1.032-2.024L3.278,13.76A6.3,6.3,0,0,0,6.294,24.367l-.528,2.3L9.538,24.3,7.175,20.532Z" transform="translate(-1.417 -3.256)" fill="#1648c6"/>
  <path id="Path_253" data-name="Path 253" d="M22.455,13.76v3.15h2.362v7.048H17.73V13.76Z" transform="translate(-4.884 -3.256)" fill="#1648c6"/>
</svg>
